<?xml version="1.0" encoding="UTF-8"?>
<svg width="191px" height="71px" viewBox="0 0 191 71" version="1.1" xmlns="http://www.w3.org/2000/svg" xmlns:xlink="http://www.w3.org/1999/xlink">
    <!-- Generator: Sketch 42 (36781) - http://www.bohemiancoding.com/sketch -->
    <title>andriod_b</title>
    <desc>Created with Sketch.</desc>
    <defs>
        <linearGradient x1="60.1573701%" y1="91.8476975%" x2="33.5579439%" y2="-59.5891331%" id="linearGradient-1">
            <stop stop-color="#D6FFA1" offset="0%"></stop>
            <stop stop-color="#93E2A7" offset="32.64%"></stop>
            <stop stop-color="#00A3B5" offset="100%"></stop>
        </linearGradient>
        <linearGradient x1="-32.1721676%" y1="-129.73572%" x2="80.1668869%" y2="113.997954%" id="linearGradient-2">
            <stop stop-color="#FF177B" offset="0%"></stop>
            <stop stop-color="#FFA976" offset="67.21%"></stop>
            <stop stop-color="#FFEC73" offset="100%"></stop>
        </linearGradient>
        <linearGradient x1="50.8193668%" y1="74.6634124%" x2="-0.0289932314%" y2="-29.3364075%" id="linearGradient-3">
            <stop stop-color="#63FFD4" offset="0%"></stop>
            <stop stop-color="#32A0BA" offset="48.54%"></stop>
            <stop stop-color="#1262A9" offset="83.49%"></stop>
            <stop stop-color="#064AA2" offset="100%"></stop>
        </linearGradient>
        <linearGradient x1="119.507988%" y1="35.5351563%" x2="-23.112411%" y2="61.0134747%" id="linearGradient-4">
            <stop stop-color="#FF4521" offset="0%"></stop>
            <stop stop-color="#D43E65" offset="34.11%"></stop>
            <stop stop-color="#9F36B9" offset="79.35%"></stop>
            <stop stop-color="#8A33DB" offset="100%"></stop>
        </linearGradient>
    </defs>
    <g id="Flagis" stroke="none" stroke-width="1" fill="none" fill-rule="evenodd">
        <g id="Flagis_Landing-page_Desktop-Copy" transform="translate(-955.000000, -1523.000000)">
            <g id="andriod_b" transform="translate(956.000000, 1524.000000)">
                <rect id="btn" stroke="#8C9EA9" stroke-width="0.72" fill="#F4F4F4" x="0" y="0" width="189" height="69" rx="4.32"></rect>
                <g id="icon-+-Google-play-+-Get-it-on" transform="translate(12.263359, 14.375000)">
                    <g id="google-play-icon" transform="translate(0.000000, 13.656250)">
                        <polygon id="Shape" points="16.5194656 15.8125 21.3526718 10.925 16.5194656 15.8125 0.93778626 0.2875 16.5194656 15.8125 0.93778626 31.3375 16.5194656 15.8125 21.4248092 20.7"></polygon>
                        <path d="M21.3526718,10.925 L2.38053435,0.575 C1.87557252,0.2875 1.37061069,0.215625 0.93778626,0.359375 L16.5194656,15.8125 L21.3526718,10.925 L21.3526718,10.925 Z" id="Shape" fill="url(#linearGradient-1)"></path>
                        <path d="M21.4248092,20.7 L27.9171756,17.178125 C29.2156489,16.459375 29.2156489,15.309375 27.9171756,14.590625 L21.4248092,10.996875 L16.5194656,15.8125 L21.4248092,20.7 L21.4248092,20.7 Z" id="Shape" fill="url(#linearGradient-2)"></path>
                        <path d="M0.93778626,0.2875 C0.360687023,0.503125 0,1.078125 0,1.940625 L0,29.684375 C0,30.546875 0.360687023,31.121875 0.93778626,31.3375 L16.5194656,15.8125 L0.93778626,0.2875 L0.93778626,0.2875 Z" id="Shape" fill="url(#linearGradient-3)"></path>
                        <path d="M0.93778626,31.3375 C1.37061069,31.48125 1.87557252,31.409375 2.38053435,31.121875 L21.3526718,20.7 L16.5194656,15.8125 L0.93778626,31.3375 L0.93778626,31.3375 Z" id="Shape" fill="url(#linearGradient-4)"></path>
                    </g>
                    <g id="google-play" transform="translate(35.347328, 17.250000)" fill="#8C9EA9">
                        <polyline id="Fill-3" points="121.711925 24.4375 129.847328 5.75 127.197682 5.75 123.434745 15.0671853 123.381556 15.0671853 119.512853 5.75 116.862595 5.75 122.215687 17.8995315 119.194944 24.4375 121.711925 24.4375"></polyline>
                        <path d="M110.370229,5.75 C107.114312,5.75 105.552009,7.68623486 105.102496,8.86318561 L107.325632,9.8047462 C107.775756,8.60123862 109.072992,7.94757828 110.423364,7.94757828 C112.250123,7.94757828 113.811815,9.12452903 113.811815,11.0607639 L113.811815,11.4271275 C113.308555,11.1392273 112.038192,10.6418901 110.290831,10.6418901 C107.246234,10.6418901 104.599237,12.2117614 104.599237,15.1155101 C104.599237,17.7844722 106.79611,19.40625 109.443719,19.40625 C111.667466,19.40625 112.990964,18.2812058 113.705544,17.2086717 L113.811815,17.2086717 L113.811815,18.9873762 L116.141221,18.9873762 L116.141221,11.2436439 C116.141221,7.63372475 113.546748,5.75 110.370229,5.75 L110.370229,5.75 Z M109.840707,17.2086717 C108.570344,17.2086717 107.140574,16.5284545 107.140574,15.1680202 C107.140574,13.9904659 108.146482,12.6306351 110.714693,12.6306351 C112.779034,12.6306351 113.811815,13.4671755 113.811815,13.4671755 C113.811815,15.5603371 111.773126,17.2086717 109.840707,17.2086717 L109.840707,17.2086717 Z" id="Fill-2"></path>
                        <polygon id="Fill-1" points="100.992366 0.71875 103.156489 0.71875 103.156489 19.40625 100.992366 19.40625"></polygon>
                        <path d="M92.958928,0.71875 L86.5648855,0.71875 L86.5648855,19.40625 L88.9757242,19.40625 L88.9757242,11.8373157 L92.958928,11.8373157 C96.0764544,11.8373157 98.8282443,9.54074331 98.8282443,6.27833394 C98.8282443,3.01592456 96.0764544,0.71875 92.958928,0.71875 L92.958928,0.71875 Z M93.010917,9.54074331 L88.9757242,9.54074331 L88.9757242,3.01592456 L93.010917,3.01592456 C95.1593926,3.01592456 96.364812,4.79043922 96.364812,6.27833394 C96.364812,7.76562651 95.1593926,9.54074331 93.010917,9.54074331 L93.010917,9.54074331 Z" id="Fill-4"></path>
                        <path d="M69.6021961,13.0425929 C69.5293784,10.6146247 71.5191221,9.37743211 72.9512037,9.37743211 C74.0677418,9.37743211 75.0137651,9.92491513 75.3293085,10.7098392 L69.6021961,13.0425929 L69.6021961,13.0425929 Z M73.1696568,19.5159846 C76.1060307,19.5159846 77.8045037,17.7545175 78.5084082,16.7315574 L76.3244838,15.3033408 C75.5963068,16.3506996 74.6011315,17.0410043 73.1696568,17.0410043 C71.7375753,17.0410043 70.7181274,16.3983068 70.0633749,15.1367155 L78.629771,11.6619836 L78.3385002,10.9478753 C77.8045037,9.54405738 76.1788484,6.9494639 72.8541134,6.9494639 C69.5536509,6.9494639 66.8114575,9.49645016 66.8114575,13.2330218 C66.8114575,16.755361 69.5293784,19.5159846 73.1696568,19.5159846 L73.1696568,19.5159846 Z" id="Fill-5"></path>
                        <polygon id="Path" points="62.6371826 19.1351269 65.4521937 19.1351269 65.4521937 0.666501076 62.6371826 0.666501076"></polygon>
                        <path d="M54.6041762,25.15625 C51.4978943,25.15625 49.6289065,23.1097346 48.9250021,21.443482 L51.3765314,20.4443254 C51.8134377,21.4672856 52.8808239,22.6812697 54.6041762,22.6812697 C56.7152828,22.6812697 58.0260015,21.3958747 58.0260015,18.9923052 L58.0260015,18.087768 L57.9289112,18.087768 C57.2978244,18.8494836 56.084196,19.5159846 54.5556311,19.5159846 C51.3522589,19.5159846 48.4158849,16.7791646 48.4158849,13.2568254 C48.4158849,9.71068265 51.3522589,6.9494639 54.5556311,6.9494639 C56.084196,6.9494639 57.2978244,7.61596498 57.9289112,8.35387688 L58.0260015,8.35387688 L58.0260015,7.33032166 L60.6953772,7.33032166 L60.6953772,18.6114475 C60.6953772,23.2525563 57.9046387,25.15625 54.6041762,25.15625 Z M54.7983567,17.0410043 C56.7152828,17.0410043 58.220182,15.4461624 58.220182,13.2568254 C58.220182,11.0430897 56.7152828,9.42503933 54.7983567,9.42503933 C52.8565513,9.42503933 51.230896,11.0430897 51.230896,13.2568254 C51.230896,15.4461624 52.8565513,17.0410043 54.7983567,17.0410043 Z" id="Path"></path>
                        <path d="M40.8197847,19.5159846 C37.2765966,19.5159846 34.3887678,16.8505754 34.3887678,13.2330218 C34.3887678,9.5916646 37.2765966,6.9494639 40.8197847,6.9494639 C44.3629729,6.9494639 47.2508017,9.5916646 47.2508017,13.2330218 C47.2508017,16.8505754 44.3629729,19.5159846 40.8197847,19.5159846 Z M40.8197847,17.0410043 C42.7609834,17.0410043 44.4357906,15.4699661 44.4357906,13.2330218 C44.4357906,10.9716789 42.7609834,9.42503933 40.8197847,9.42503933 C38.8779793,9.42503933 37.2037789,10.9716789 37.2037789,13.2330218 C37.2037789,15.4699661 38.8779793,17.0410043 40.8197847,17.0410043 Z" id="Path"></path>
                        <path d="M26.7926676,19.5159846 C23.2494794,19.5159846 20.3610438,16.8505754 20.3610438,13.2330218 C20.3610438,9.5916646 23.2494794,6.9494639 26.7926676,6.9494639 C30.3358557,6.9494639 33.2236845,9.5916646 33.2236845,13.2330218 C33.2236845,16.8505754 30.3358557,19.5159846 26.7926676,19.5159846 Z M26.7926676,17.0410043 C28.7338662,17.0410043 30.4086734,15.4699661 30.4086734,13.2330218 C30.4086734,10.9716789 28.7338662,9.42503933 26.7926676,9.42503933 C24.8508621,9.42503933 23.1766617,10.9716789 23.1766617,13.2330218 C23.1766617,15.4699661 24.8508621,17.0410043 26.7926676,17.0410043 Z" id="Path"></path>
                        <path d="M10.0955679,19.5159846 C13.0568212,19.5159846 15.2892907,18.5638402 17.0363088,16.7791646 C18.8324788,15.0176975 19.3907479,12.5427171 19.3907479,10.5432139 C19.3907479,9.92491513 19.3422028,9.3536285 19.2451125,8.8775563 L10.0955679,8.8775563 L10.0955679,11.5429655 L16.5994026,11.5429655 C16.405222,13.0425929 15.8961049,14.1369639 15.1193827,14.8986794 C14.1727526,15.8270202 12.6921259,16.8505754 10.0955679,16.8505754 C6.09120098,16.8505754 2.9606465,13.6852904 2.9606465,9.75828987 C2.9606465,5.83128933 6.09120098,2.66600431 10.0955679,2.66600431 C12.2558265,2.66600431 13.8329366,3.49853556 14.9980199,4.569698 L16.914946,2.68980792 C15.2892907,1.16637688 13.1290321,0 10.0955679,0 C4.61118114,0 0,4.37926913 0,9.75828987 C0,15.1367155 4.61118114,19.5159846 10.0955679,19.5159846 L10.0955679,19.5159846 Z" id="Path"></path>
                    </g>
                    <path d="M42.5430387,7.41997221 C42.4566237,7.53227746 42.3363958,7.65674724 42.1823517,7.7933853 C42.0283075,7.93002335 41.8301195,8.05730072 41.5877816,8.17522123 C41.3454438,8.29314175 41.0542671,8.39234323 40.7142428,8.47282866 C40.3742184,8.55331408 39.9750245,8.5935562 39.5166491,8.5935562 C39.0019161,8.5935562 38.5294584,8.50558507 38.0992618,8.32964018 C37.6690653,8.15369529 37.2999283,7.89914054 36.99184,7.5659683 C36.6837516,7.23279607 36.4442353,6.82288806 36.2732838,6.33623198 C36.1023323,5.8495759 36.0168579,5.29367325 36.0168579,4.66850737 L36.0168579,4.12944487 C36.0168579,3.50802249 36.0938788,2.95305571 36.247923,2.46452788 C36.4019672,1.97600004 36.6236372,1.56328444 36.9129397,1.2263687 C37.2022422,0.889452948 37.5554114,0.633026476 37.9724578,0.457081586 C38.3895043,0.281136696 38.8629013,0.19316557 39.392663,0.19316557 C39.8923673,0.19316557 40.3281931,0.25774012 40.7001534,0.386891156 C41.0721138,0.516042193 41.3858332,0.696663759 41.6413211,0.928761274 C41.896809,1.16085879 42.0978149,1.43693838 42.2443447,1.75700834 C42.3908746,2.0770783 42.4885597,2.42802694 42.537403,2.80986479 L41.1397407,2.80986479 C41.1059262,2.59648482 41.0495694,2.39995358 40.9706687,2.22026518 C40.891768,2.04057678 40.7837508,1.88522352 40.6466139,1.75420073 C40.5094771,1.62317794 40.3404067,1.520233 40.1393978,1.44536284 C39.9383889,1.37049267 39.6988726,1.33305815 39.4208416,1.33305815 C39.086453,1.33305815 38.7962156,1.39482511 38.5501206,1.51836088 C38.3040256,1.64189666 38.0992627,1.82251822 37.9358255,2.060231 C37.7723884,2.29794378 37.6502821,2.58993304 37.5695028,2.93620756 C37.4887235,3.28248208 37.4483345,3.67648042 37.4483345,4.1182144 L37.4483345,4.66850737 C37.4483345,5.11772836 37.497177,5.51547015 37.5948636,5.86174467 C37.6925501,6.20801919 37.8325028,6.49907259 38.0147258,6.73491362 C38.1969488,6.97075464 38.4186188,7.15044034 38.6797425,7.27397612 C38.9408662,7.39751189 39.2367393,7.45927885 39.5673707,7.45927885 C39.8115871,7.45927885 40.0210465,7.44336918 40.1957552,7.41154936 C40.3704638,7.37972954 40.5179307,7.33948743 40.6381603,7.29082182 C40.75839,7.24215621 40.8570143,7.18881202 40.9340364,7.13078764 C41.0110585,7.07276326 41.0739903,7.01754734 41.1228335,6.96513823 L41.1228335,5.36479643 L39.4321131,5.36479643 L39.4321131,4.28667143 L42.5430387,4.28667143 L42.5430387,7.41997221 Z M48.9057832,4.83134916 L45.5356138,4.83134916 L45.5356138,7.34697416 L49.4749924,7.34697416 L49.4749924,8.48125151 L44.1097729,8.48125151 L44.1097729,0.305470258 L49.4355423,0.305470258 L49.4355423,1.45097807 L45.5356138,1.45097807 L45.5356138,3.70830229 L48.9057832,3.70830229 L48.9057832,4.83134916 Z M56.5647467,1.45097807 L54.0061231,1.45097807 L54.0061231,8.48125151 L52.5915537,8.48125151 L52.5915537,1.45097807 L50.0554731,1.45097807 L50.0554731,0.305470258 L56.5647467,0.305470258 L56.5647467,1.45097807 Z M62.0201379,8.48125151 L60.5999328,8.48125151 L60.5999328,0.305470258 L62.0201379,0.305470258 L62.0201379,8.48125151 Z M69.7016444,1.45097807 L67.1430208,1.45097807 L67.1430208,8.48125151 L65.7284514,8.48125151 L65.7284514,1.45097807 L63.1923707,1.45097807 L63.1923707,0.305470258 L69.7016444,0.305470258 L69.7016444,1.45097807 Z M80.2010182,4.60673979 C80.2010182,5.22816217 80.1193008,5.78500067 79.9558637,6.27727202 C79.7924266,6.76954336 79.5623031,7.18693827 79.2654862,7.52946928 C78.9686694,7.87200029 78.6117431,8.1349778 78.1946966,8.31840971 C77.7776501,8.50184162 77.3155245,8.5935562 76.8083059,8.5935562 C76.3048444,8.5935562 75.8445973,8.50184162 75.4275509,8.31840971 C75.0105044,8.1349778 74.6507603,7.87200029 74.3483076,7.52946928 C74.045855,7.18693827 73.8110351,6.76954336 73.6438408,6.27727202 C73.4766465,5.78500067 73.3930506,5.22816217 73.3930506,4.60673979 L73.3930506,4.19121245 C73.3930506,3.56979007 73.4766465,3.0120157 73.6438408,2.5178726 C73.8110351,2.02372951 74.0439765,1.60446287 74.3426719,1.2600601 C74.6413673,0.915657338 74.9992329,0.651743962 75.4162794,0.468312055 C75.8333258,0.284880148 76.2935729,0.19316557 76.7970344,0.19316557 C77.3042531,0.19316557 77.767318,0.284880148 78.186243,0.468312055 C78.605168,0.651743962 78.9639729,0.915657338 79.2626683,1.2600601 C79.5613638,1.60446287 79.7924266,2.02372951 79.9558637,2.5178726 C80.1193008,3.0120157 80.2010182,3.56979007 80.2010182,4.19121245 L80.2010182,4.60673979 Z M78.7751773,4.17998198 C78.7751773,3.72327396 78.7310311,3.319917 78.6427375,2.96989897 C78.5544439,2.61988094 78.4257626,2.32695581 78.2566897,2.09111479 C78.0876168,1.85527377 77.880036,1.67652393 77.633941,1.55485991 C77.387846,1.43319589 77.1088799,1.37236479 76.7970344,1.37236479 C76.4927032,1.37236479 76.2184335,1.43319589 75.9742171,1.55485991 C75.7300007,1.67652393 75.5224199,1.85527377 75.3514684,2.09111479 C75.180517,2.32695581 75.0490178,2.61988094 74.956967,2.96989897 C74.8649162,3.319917 74.8188915,3.72327396 74.8188915,4.17998198 L74.8188915,4.60673979 C74.8188915,5.0634478 74.8649162,5.46774063 74.956967,5.81963041 C75.0490178,6.17152019 75.1814562,6.46631705 75.3542863,6.70402983 C75.5271164,6.94174261 75.7365757,7.12142831 75.9826707,7.24309233 C76.2287657,7.36475635 76.5039747,7.42558745 76.8083059,7.42558745 C77.4395113,7.42558745 77.9251189,7.18600651 78.2651433,6.70683745 C78.6051677,6.22766838 78.7751773,5.52764283 78.7751773,4.60673979 L78.7751773,4.17998198 Z M88.1304969,8.48125151 L86.7046561,8.48125151 L83.0470642,2.6807144 L83.0470642,8.48125151 L81.6212233,8.48125151 L81.6212233,0.305470258 L83.0470642,0.305470258 L86.7159275,6.1284683 L86.7159275,0.305470258 L88.1304969,0.305470258 L88.1304969,8.48125151 Z" id="GET-IT-ON" fill="#8C9EA9"></path>
                </g>
            </g>
        </g>
    </g>
</svg>