<?xml version="1.0" encoding="UTF-8" standalone="no"?>
<svg width="65px" height="32px" viewBox="0 0 65 32" version="1.1" xmlns="http://www.w3.org/2000/svg" xmlns:xlink="http://www.w3.org/1999/xlink">
    <!-- Generator: Sketch 3.6.1 (26313) - http://www.bohemiancoding.com/sketch -->
    <title>Group 2</title>
    <desc>Created with Sketch.</desc>
    <defs></defs>
    <g id="Flagis" stroke="none" stroke-width="1" fill="none" fill-rule="evenodd">
        <g id="Flagis_Desktop" transform="translate(-34.000000, -16.000000)">
            <g id="Group-2" transform="translate(34.000000, 16.000000)">
                <path d="M0.1005,13.0022642 L2.109,13.0022642 L2.109,22.6415094 L5.508,22.6415094 L5.508,13.0022642 L8.7525,13.0022642 L8.7525,9.89283019 L5.508,9.89283019 L5.508,5.38415094 C5.508,4.14037736 6.2805,3.36301887 7.2075,3.36301887 C7.98,3.36301887 8.598,3.98490566 8.598,3.98490566 L9.6795,1.0309434 C9.6795,1.0309434 8.598,0.253584906 6.8985,0.253584906 C4.272,0.253584906 2.109,2.43018868 2.109,5.38415094 L2.109,9.89283019 L0.1005,9.89283019 L0.1005,13.0022642 Z M11.5335,22.6415094 L14.9325,22.6415094 L14.9325,1.49735849 L11.5335,1.49735849 L11.5335,22.6415094 Z M26.3655,17.8218868 C26.3655,17.8218868 25.7475,20.1539623 23.43,20.1539623 C22.0395,20.1539623 21.4215,19.5320755 21.4215,18.9101887 C21.4215,18.2883019 22.0395,17.6664151 23.121,17.6664151 C24.975,17.6664151 26.3655,17.8218868 26.3655,17.8218868 L26.3655,17.8218868 Z M23.739,9.2709434 C20.649,9.2709434 19.104,11.1366038 19.104,11.1366038 L21.1125,13.4686792 C21.1125,13.4686792 22.194,12.3803774 23.739,12.3803774 C25.1295,12.3803774 26.3655,13.6241509 26.3655,15.1788679 C26.3655,15.1788679 24.975,14.5569811 23.121,14.5569811 C19.8765,14.5569811 17.868,16.3604528 17.868,18.9101887 C17.868,21.3977358 19.722,23.2633962 22.503,23.2633962 C24.975,23.2633962 26.0565,21.3977358 26.0565,21.3977358 L26.3655,21.3977358 L26.3655,22.6415094 L29.7645,22.6415094 L29.7645,15.1788679 C29.7645,11.9139623 27.138,9.2709434 23.739,9.2709434 L23.739,9.2709434 Z M41.352,15.1788679 C41.352,16.2671698 40.2705,17.3554717 38.88,17.3554717 C37.4895,17.3554717 36.408,16.2671698 36.408,15.1788679 C36.408,14.090566 37.4895,13.0022642 38.88,13.0022642 C40.2705,13.0022642 41.352,14.090566 41.352,15.1788679 L41.352,15.1788679 Z M37.1805,20.2783396 C37.1805,20.2783396 38.1075,20.4649057 38.88,20.4649057 C42.4335,20.4649057 44.9055,17.9773585 44.9055,15.4898113 C44.9055,14.2460377 44.133,13.3132075 44.133,13.3132075 L44.133,13.0022642 L45.8325,13.0022642 L45.8325,9.89283019 L38.88,9.89283019 C35.3265,9.89283019 32.8545,12.3803774 32.8545,15.1788679 C32.8545,17.6664151 34.3995,18.754717 34.3995,18.754717 L34.3995,19.0656604 C34.3995,19.0656604 33.1635,19.6875472 33.1635,20.9313208 C33.1635,22.1750943 34.3995,22.7969811 34.3995,22.7969811 L34.3995,23.1079245 C34.3995,23.1079245 32.082,24.5071698 32.082,26.8392453 C32.082,29.4822642 34.554,31.9698113 38.88,31.9698113 C43.206,31.9698113 45.678,29.4822642 45.678,26.8392453 C45.678,24.1962264 43.206,21.7086792 38.88,21.7086792 C38.1075,21.7086792 37.1805,21.8641509 37.1805,21.8641509 C37.1805,21.8641509 36.5625,21.7086792 36.5625,21.0867925 C36.5625,20.4649057 37.1805,20.2783396 37.1805,20.2783396 L37.1805,20.2783396 Z M42.1245,26.8392453 C42.1245,27.7720755 41.043,28.8603774 38.88,28.8603774 C36.717,28.8603774 35.6355,27.7720755 35.6355,26.8392453 C35.6355,25.9064151 36.717,24.8181132 38.88,24.8181132 C41.043,24.8181132 42.1245,25.9064151 42.1245,26.8392453 L42.1245,26.8392453 Z M48.3045,22.6415094 L51.7035,22.6415094 L51.7035,9.89283019 L48.3045,9.89283019 L48.3045,22.6415094 Z M52.0125,3.51849057 C52.0125,2.43018868 51.0855,1.49735849 50.004,1.49735849 C48.9225,1.49735849 47.9955,2.43018868 47.9955,3.51849057 C47.9955,4.60679245 48.9225,5.53962264 50.004,5.53962264 C51.0855,5.53962264 52.0125,4.60679245 52.0125,3.51849057 L52.0125,3.51849057 Z M59.4285,20.1539623 C57.5745,20.1539623 56.3385,18.5992453 56.3385,18.5992453 L54.021,20.7758491 C54.021,20.7758491 56.0295,23.2633962 59.7375,23.2633962 C62.982,23.2633962 64.9905,21.2422642 64.9905,19.0656604 C64.9905,14.2460377 58.5015,15.1788679 58.5015,13.4686792 C58.5015,12.8467925 58.965,12.3803774 60.0465,12.3803774 C61.5915,12.3803774 62.5185,13.6241509 62.5185,13.6241509 L64.836,11.4475472 C64.836,11.4475472 63.1365,9.2709434 59.7375,9.2709434 C56.802,9.2709434 54.7935,11.2920755 54.7935,13.1577358 C54.7935,17.9773585 61.2825,17.0445283 61.2825,18.754717 C61.2825,19.5320755 60.6645,20.1539623 59.4285,20.1539623 L59.4285,20.1539623 Z" id="flagis" fill="#FFFFFF"></path>
                <path d="M15,8.45283019 L15,1.50943396 L29.7,4.98113208 L15,8.45283019 Z" id="Triangle-1-Copy" fill="#44FFB1"></path>
            </g>
        </g>
    </g>
</svg>
