<?xml version="1.0" encoding="UTF-8"?>
<svg width="96px" height="47px" viewBox="0 0 96 47" version="1.1" xmlns="http://www.w3.org/2000/svg" xmlns:xlink="http://www.w3.org/1999/xlink">
    <!-- Generator: Sketch 42 (36781) - http://www.bohemiancoding.com/sketch -->
    <title>logo</title>
    <desc>Created with Sketch.</desc>
    <defs></defs>
    <g id="Flagis" stroke="none" stroke-width="1" fill="none" fill-rule="evenodd">
        <g id="Flagis_Landing-page_Desktop" transform="translate(-65.000000, -52.000000)">
            <g id="logo" transform="translate(65.000000, 52.000000)">
                <path d="M0.078735,18.91887 L3.03123,18.91887 L3.03123,33 L8.02776,33 L8.02776,18.91887 L12.797175,18.91887 L12.797175,14.37657 L8.02776,14.37657 L8.02776,7.790235 C8.02776,5.973315 9.163335,4.83774 10.526025,4.83774 C11.6616,4.83774 12.57006,5.7462 12.57006,5.7462 L14.159865,1.431015 C14.159865,1.431015 12.57006,0.29544 10.071795,0.29544 C6.21084,0.29544 3.03123,3.47505 3.03123,7.790235 L3.03123,14.37657 L0.078735,14.37657 L0.078735,18.91887 Z M16.885245,33 L21.881775,33 L21.881775,2.11236 L16.885245,2.11236 L16.885245,33 Z M38.688285,25.959435 C38.688285,25.959435 37.779825,29.36616 34.3731,29.36616 C32.329065,29.36616 31.420605,28.4577 31.420605,27.54924 C31.420605,26.64078 32.329065,25.73232 33.91887,25.73232 C36.64425,25.73232 38.688285,25.959435 38.688285,25.959435 L38.688285,25.959435 Z M34.82733,13.46811 C30.28503,13.46811 28.01388,16.19349 28.01388,16.19349 L30.966375,19.600215 C30.966375,19.600215 32.55618,18.01041 34.82733,18.01041 C36.871365,18.01041 38.688285,19.82733 38.688285,22.09848 C38.688285,22.09848 36.64425,21.19002 33.91887,21.19002 C29.149455,21.19002 26.19696,23.824554 26.19696,27.54924 C26.19696,31.18308 28.92234,33.90846 33.01041,33.90846 C36.64425,33.90846 38.234055,31.18308 38.234055,31.18308 L38.688285,31.18308 L38.688285,33 L43.684815,33 L43.684815,22.09848 C43.684815,17.329065 39.82386,13.46811 34.82733,13.46811 L34.82733,13.46811 Z M60.71844,22.09848 C60.71844,23.688285 59.128635,25.27809 57.0846,25.27809 C55.040565,25.27809 53.45076,23.688285 53.45076,22.09848 C53.45076,20.508675 55.040565,18.91887 57.0846,18.91887 C59.128635,18.91887 60.71844,20.508675 60.71844,22.09848 L60.71844,22.09848 Z M54.586335,29.547852 C54.586335,29.547852 55.949025,29.82039 57.0846,29.82039 C62.308245,29.82039 65.942085,26.18655 65.942085,22.55271 C65.942085,20.73579 64.80651,19.3731 64.80651,19.3731 L64.80651,18.91887 L67.304775,18.91887 L67.304775,14.37657 L57.0846,14.37657 C51.860955,14.37657 48.227115,18.01041 48.227115,22.09848 C48.227115,25.73232 50.498265,27.322125 50.498265,27.322125 L50.498265,27.776355 C50.498265,27.776355 48.681345,28.684815 48.681345,30.501735 C48.681345,32.318655 50.498265,33.227115 50.498265,33.227115 L50.498265,33.681345 C50.498265,33.681345 47.09154,35.72538 47.09154,39.132105 C47.09154,42.99306 50.72538,46.6269 57.0846,46.6269 C63.44382,46.6269 67.07766,42.99306 67.07766,39.132105 C67.07766,35.27115 63.44382,31.63731 57.0846,31.63731 C55.949025,31.63731 54.586335,31.864425 54.586335,31.864425 C54.586335,31.864425 53.677875,31.63731 53.677875,30.72885 C53.677875,29.82039 54.586335,29.547852 54.586335,29.547852 L54.586335,29.547852 Z M61.854015,39.132105 C61.854015,40.494795 60.26421,42.0846 57.0846,42.0846 C53.90499,42.0846 52.315185,40.494795 52.315185,39.132105 C52.315185,37.769415 53.90499,36.17961 57.0846,36.17961 C60.26421,36.17961 61.854015,37.769415 61.854015,39.132105 L61.854015,39.132105 Z M70.938615,33 L75.935145,33 L75.935145,14.37657 L70.938615,14.37657 L70.938615,33 Z M76.389375,5.064855 C76.389375,3.47505 75.026685,2.11236 73.43688,2.11236 C71.847075,2.11236 70.484385,3.47505 70.484385,5.064855 C70.484385,6.65466 71.847075,8.01735 73.43688,8.01735 C75.026685,8.01735 76.389375,6.65466 76.389375,5.064855 L76.389375,5.064855 Z M87.290895,29.36616 C84.565515,29.36616 82.748595,27.09501 82.748595,27.09501 L79.34187,30.27462 C79.34187,30.27462 82.294365,33.90846 87.745125,33.90846 C92.51454,33.90846 95.467035,30.955965 95.467035,27.776355 C95.467035,20.73579 85.928205,22.09848 85.928205,19.600215 C85.928205,18.691755 86.60955,18.01041 88.199355,18.01041 C90.470505,18.01041 91.833195,19.82733 91.833195,19.82733 L95.23992,16.64772 C95.23992,16.64772 92.741655,13.46811 87.745125,13.46811 C83.42994,13.46811 80.477445,16.420605 80.477445,19.145985 C80.477445,26.18655 90.016275,24.82386 90.016275,27.322125 C90.016275,28.4577 89.107815,29.36616 87.290895,29.36616 L87.290895,29.36616 Z" id="flagis" fill="#282F34"></path>
                <polygon id="Triangle-1-Copy" fill="#43FFB1" points="21.954955 11.9767442 21.954955 1.81395349 43.5855856 6.89534884"></polygon>
            </g>
        </g>
    </g>
</svg>