<svg width="102" height="38" viewBox="0 0 102 38" fill="none" xmlns="http://www.w3.org/2000/svg">
<path fill-rule="evenodd" clip-rule="evenodd" d="M3.413 22.6935C5.29669 22.6935 6.826 24.2591 6.826 26.1874C6.826 28.1157 5.29669 29.6813 3.413 29.6813C1.52932 29.6813 0 28.1157 0 26.1874C0 24.2591 1.52932 22.6935 3.413 22.6935Z" fill="#1C2124"/>
<path fill-rule="evenodd" clip-rule="evenodd" d="M17.6459 3.95969C17.6459 2.03134 16.1166 0.46582 14.2329 0.46582H3.413C1.52932 0.46582 0 2.03134 0 3.95969C0 5.88797 1.52932 7.45356 3.413 7.45356H14.2329C16.1166 7.45356 17.6459 5.88797 17.6459 3.95969Z" fill="#1C2124"/>
<path fill-rule="evenodd" clip-rule="evenodd" d="M17.6459 15.0736C17.6459 13.1452 16.1166 11.5797 14.2329 11.5797H3.413C1.52932 11.5797 0 13.1452 0 15.0736C0 17.0019 1.52932 18.5675 3.413 18.5675H14.2329C16.1166 18.5675 17.6459 17.0019 17.6459 15.0736Z" fill="#1C2124"/>
<path fill-rule="evenodd" clip-rule="evenodd" d="M25.3916 29.7252C25.8399 29.7252 26.2698 29.5428 26.5868 29.2184C26.9038 28.8939 27.0819 28.4538 27.0819 27.9949C27.0819 22.8111 27.0819 7.44648 27.0819 2.26271C27.0819 1.80378 26.9038 1.36368 26.5868 1.03919C26.2698 0.71469 25.8399 0.53241 25.3916 0.53241C24.7967 0.53241 24.1284 0.53241 23.5335 0.53241C23.0852 0.53241 22.6553 0.71469 22.3383 1.03919C22.0213 1.36368 21.8433 1.80378 21.8433 2.26271C21.8433 7.44648 21.8433 22.8111 21.8433 27.9949C21.8433 28.4538 22.0213 28.8939 22.3383 29.2184C22.6553 29.5428 23.0852 29.7252 23.5335 29.7252C24.1284 29.7252 24.7967 29.7252 25.3916 29.7252Z" fill="#1C2124"/>
<path fill-rule="evenodd" clip-rule="evenodd" d="M31.3346 24.2903C31.3346 27.3951 33.8554 30.2579 37.9912 30.2579C40.8666 30.2579 42.7178 28.887 43.7025 27.3145C43.7025 27.5387 43.7092 27.7908 43.7218 28.0481C43.766 28.9679 44.5074 29.6903 45.407 29.6903C45.858 29.6934 46.3581 29.6934 46.8297 29.6934C47.2967 29.6934 47.7429 29.4956 48.0625 29.1469C48.3819 28.7982 48.5463 28.3298 48.5165 27.8527C48.4859 27.4055 48.4684 26.9502 48.4684 26.5483V16.7905C48.4684 12.7987 46.1839 9.25043 40.0394 9.25043C35.9795 9.25043 33.3847 11.3402 32.2923 13.7343C32.0736 14.2125 32.0801 14.7667 32.31 15.2393C32.5399 15.7119 32.9681 16.0512 33.4726 16.1606C33.9243 16.2587 34.4071 16.3634 34.8469 16.4588C35.6087 16.624 36.3823 16.235 36.7201 15.5166C37.2541 14.385 38.3849 13.5648 40.0788 13.5648C42.2845 13.5648 43.348 14.7341 43.348 16.1454C43.348 16.8309 42.9935 17.3953 41.8907 17.5567L37.1247 18.2824C33.8948 18.7663 31.3346 20.742 31.3346 24.2903ZM39.0941 26.2661C37.4004 26.2661 36.5732 25.1371 36.5732 23.9677C36.5732 22.4356 37.6367 21.6694 38.9759 21.4678L43.348 20.7823V21.6694C43.348 25.1774 41.2998 26.2661 39.0941 26.2661Z" fill="#1C2124"/>
<path fill-rule="evenodd" clip-rule="evenodd" d="M53.9904 30.3539C53.5115 30.4846 53.1127 30.824 52.8997 31.2822C52.6866 31.7404 52.6808 32.2712 52.8838 32.7342C54.1718 35.6731 57.3545 37.9837 61.7464 37.9837C69.0333 37.9837 71.9087 33.0241 71.9087 27.5807C71.9087 27.5807 71.9087 16.0645 71.9087 11.6099C71.9087 11.1509 71.7306 10.7108 71.4133 10.3863C71.0967 10.0618 70.6664 9.87956 70.2185 9.87956C69.6834 9.87956 69.0918 9.87956 68.5575 9.87956C67.6239 9.87956 66.8672 10.6542 66.8672 11.6099C66.8672 11.9573 66.8672 12.2182 66.8672 12.2182C66.1976 10.8876 64.4249 9.51666 61.3526 9.51666C56.0351 9.51666 52.3326 13.952 52.3326 19.1938C52.3326 24.7582 56.1927 28.8306 61.3526 28.8306C64.1491 28.8306 65.961 27.5807 66.7489 26.2904V27.742C66.7489 31.5725 64.8975 33.266 61.5889 33.266C59.6441 33.266 58.1832 32.3002 57.4716 30.8343C57.1132 30.0994 56.2995 29.7238 55.5242 29.9354C55.0338 30.0691 54.489 30.2177 53.9904 30.3539ZM62.2585 24.234C59.5407 24.234 57.6107 22.2986 57.6107 19.1938C57.6107 16.1294 59.6589 14.1939 62.2585 14.1939C64.7793 14.1939 66.8276 16.1294 66.8276 19.1938C66.8276 22.2582 64.9369 24.234 62.2585 24.234Z" fill="#1C2124"/>
<path fill-rule="evenodd" clip-rule="evenodd" d="M80.7601 29.6767C81.208 29.6767 81.6377 29.4943 81.955 29.1699C82.2722 28.8454 82.4504 28.4052 82.4504 27.9464C82.4504 24.19 82.4504 15.325 82.4504 11.5688C82.4504 11.1098 82.2722 10.6697 81.955 10.3453C81.6377 10.0208 81.208 9.83847 80.7601 9.83847C80.1646 9.83847 79.4963 9.83847 78.9015 9.83847C78.4536 9.83847 78.0232 10.0208 77.7066 10.3453C77.3894 10.6697 77.2112 11.1098 77.2112 11.5688C77.2112 15.325 77.2112 24.19 77.2112 27.9464C77.2112 28.4052 77.3894 28.8454 77.7066 29.1699C78.0232 29.4943 78.4536 29.6767 78.9015 29.6767C79.4963 29.6767 80.1646 29.6767 80.7601 29.6767ZM76.5813 3.34666C76.5813 5.12082 78.0388 6.61273 79.811 6.61273C81.6228 6.61273 83.0406 5.12082 83.0406 3.34666C83.0406 1.49192 81.6228 0 79.811 0C78.0388 0 76.5813 1.49192 76.5813 3.34666Z" fill="#1C2124"/>
<path fill-rule="evenodd" clip-rule="evenodd" d="M88.1162 23.7733C87.6072 23.8876 87.1782 24.2358 86.9532 24.7171C86.7283 25.1983 86.7328 25.7589 86.9656 26.2362C87.9459 28.23 90.1653 30.2982 94.4267 30.2982C99.5079 30.2982 101.95 26.9919 101.95 23.7662C101.95 20.863 100.02 18.484 96.1989 17.6776L93.4418 17.0728C92.3783 16.8712 91.6697 16.2663 91.6697 15.2986C91.6697 14.1696 92.7722 13.3229 94.1511 13.3229C95.6489 13.3229 96.5116 14.0111 96.9595 14.819C97.3281 15.4785 98.0738 15.8147 98.798 15.6477C99.1633 15.5641 99.5592 15.4728 99.9376 15.3855C100.454 15.2665 100.886 14.9071 101.105 14.4143C101.324 13.9215 101.305 13.3521 101.054 12.8756C100.098 11.0615 98.0289 9.25043 94.1114 9.25043C89.9365 9.25043 86.8642 12.1939 86.8642 15.7422C86.8642 18.5244 88.5577 20.8227 92.2996 21.6694L94.8597 22.2742C96.3569 22.5968 96.9478 23.3226 96.9478 24.2097C96.9478 25.2581 96.1202 26.1854 94.3871 26.1854C92.7365 26.1854 91.682 25.4273 91.1795 24.4133C90.8317 23.7113 90.0639 23.3388 89.3131 23.5074C88.9276 23.5912 88.5115 23.6846 88.1162 23.7733Z" fill="#1C2124"/>
</svg>
